<?xml version="1.0" encoding="utf-8"?>
<!-- Generator: Adobe Illustrator 16.0.0, SVG Export Plug-In . SVG Version: 6.00 Build 0)  -->
<!DOCTYPE svg PUBLIC "-//W3C//DTD SVG 1.1//EN" "http://www.w3.org/Graphics/SVG/1.1/DTD/svg11.dtd">
<svg version="1.1" id="Layer_1" xmlns="http://www.w3.org/2000/svg" xmlns:xlink="http://www.w3.org/1999/xlink" x="0px" y="0px"
	 width="284px" height="44px" viewBox="0 0 141.587 21.844" enable-background="new 0 0 141.587 21.844"
	 xml:space="preserve">
<g>
	<g>
		<path fill="#FFFFFF" d="M24.481,21.55h-5.955L14.765,7.676L11.004,21.55H5.047L0,0.337h4.271l3.888,16.748l4.579-16.348h4.055
			l4.598,16.42l3.868-16.82h4.272L24.481,21.55z"/>
	</g>
	<path fill="#FFFFFF" d="M39.398,21.567c-2.963,0-5.111-0.894-6.38-2.654c-1.225-1.703-1.847-4.341-1.847-7.845
		c0-7.122,2.912-10.731,8.65-10.731c2.76,0,4.868,0.8,6.266,2.379c1.377,1.558,2.077,3.992,2.077,7.234l-0.194,2.796H35.306
		c0.064,1.688,0.408,2.961,1.025,3.781c0.648,0.865,1.841,1.304,3.549,1.304c1.889,0,3.837-0.078,5.791-0.23l1.739-0.179l0.117,3.45
		l-0.531,0.072C44.049,21.358,41.494,21.567,39.398,21.567z M35.273,9.239h8.798c-0.057-1.903-0.394-3.261-1.002-4.046
		c-0.645-0.827-1.7-1.231-3.228-1.231c-1.536,0-2.646,0.433-3.396,1.327C35.755,6.114,35.361,7.439,35.273,9.239z"/>
	<path fill="#FFFFFF" d="M60.007,2.086c-3.069,0-4.604,1.156-4.604,3.468c0,1.287,0.354,2.175,1.059,2.653
		c0.705,0.48,2.137,0.963,4.296,1.443c2.158,0.481,3.686,1.104,4.586,1.87c0.901,0.768,1.351,2.032,1.351,3.79
		c0,4.356-2.26,6.534-6.781,6.534c-1.493,0-3.365-0.173-5.614-0.521l-1.105-0.153l0.246-1.964c2.782,0.369,4.899,0.555,6.351,0.555
		c3.027,0,4.541-1.425,4.541-4.266c0-1.146-0.333-1.97-0.996-2.472c-0.667-0.499-1.908-0.925-3.729-1.272
		c-2.393-0.512-4.091-1.171-5.092-1.98c-1.002-0.806-1.504-2.163-1.504-4.065C53.011,1.903,55.292,0,59.854,0
		c1.493,0,3.282,0.152,5.369,0.459l1.043,0.155L66.05,2.607C63.208,2.26,61.192,2.086,60.007,2.086z"/>
	<path fill="#FFFFFF" d="M83.936,21.567v-9.603H73.137v9.603h-2.362V0.337h2.362v9.511h10.799V0.337h2.333v21.23H83.936z"/>
	<path fill="#FFFFFF" d="M89.613,21.567l5.829-21.23h5.153l5.831,21.23h-2.331l-1.535-5.461h-9.081l-1.534,5.461H89.613z
		 M97.221,2.362L94,13.992h8.037l-3.219-11.63H97.221z"/>
	<path fill="#FFFFFF" d="M112.132,13.438v8.13h-2.362V0.337h7.855c2.249,0,3.94,0.521,5.077,1.565
		c1.134,1.042,1.702,2.669,1.702,4.876c0,3.275-1.298,5.328-3.896,6.169l4.08,8.619h-2.607l-3.836-8.13H112.132z M117.657,11.352
		c2.882,0,4.325-1.486,4.325-4.463c0-2.978-1.453-4.465-4.356-4.465h-5.493v8.928H117.657z"/>
	<path fill="#FFFFFF" d="M128.669,21.567V0.337h12.918v2.086h-10.554v7.332h8.712v2.058h-8.712v7.668h10.554v2.086H128.669z"/>
</g>
</svg>
